<mxfile host="app.diagrams.net" modified="2023-10-23T10:35:50.064Z" agent="Mozilla/5.0 (Macintosh; Intel Mac OS X 10_15_7) AppleWebKit/537.36 (KHTML, like Gecko) Chrome/117.0.0.0 Safari/537.36" version="22.0.6" etag="Rn0lkB2FrZuENERbnvGU" type="github">
  <diagram name="Page-1" id="iKKPs2rp7U8r5yxUb5pT">
    <mxGraphModel>
      <root>
        <mxCell id="0" />
        <mxCell id="1" parent="0" />
      </root>
    </mxGraphModel>
  </diagram>
</mxfile>
